# This file uses centimeters as units for non-parametric coordinates.

mtllib See.mtl
g default
v -0.039289 0.497112 2.044409
v 0.039289 0.497112 2.044409
v -0.039289 1.682875 2.044409
v 0.039289 1.682875 2.044409
v -0.039289 1.682875 1.164421
v 0.039289 1.682875 1.164421
v -0.039289 0.497112 1.164421
v 0.039289 0.497112 1.164421
vt 0.375000 0.000000
vt 0.625000 0.000000
vt 0.375000 0.250000
vt 0.625000 0.250000
vt 0.375000 0.500000
vt 0.625000 0.500000
vt 0.375000 0.750000
vt 0.625000 0.750000
vt 0.375000 1.000000
vt 0.625000 1.000000
vt 0.875000 0.000000
vt 0.875000 0.250000
vn 0.000000 0.000000 1.000000
vn 0.000000 0.000000 1.000000
vn 0.000000 0.000000 1.000000
vn 0.000000 0.000000 1.000000
vn 0.000000 1.000000 0.000000
vn 0.000000 1.000000 0.000000
vn 0.000000 1.000000 0.000000
vn 0.000000 1.000000 0.000000
vn 0.000000 0.000000 -1.000000
vn 0.000000 0.000000 -1.000000
vn 0.000000 0.000000 -1.000000
vn 0.000000 0.000000 -1.000000
vn 0.000000 -1.000000 0.000000
vn 0.000000 -1.000000 0.000000
vn 0.000000 -1.000000 0.000000
vn 0.000000 -1.000000 0.000000
vn 1.000000 0.000000 0.000000
vn 1.000000 0.000000 0.000000
vn 1.000000 0.000000 0.000000
vn 1.000000 0.000000 0.000000
s off
g pCube2
usemtl initialShadingGroup
f 1/1/1 2/2/2 4/4/3 3/3/4
f 3/3/5 4/4/6 6/6/7 5/5/8
f 5/5/9 6/6/10 8/8/11 7/7/12
f 7/7/13 8/8/14 2/10/15 1/9/16
f 2/2/17 8/11/18 6/12/19 4/4/20
g default
v -0.044497 0.449221 2.104415
v 0.044497 0.449221 2.104415
v -0.044497 1.753849 2.104415
v 0.044497 1.753849 2.104415
v -0.044497 1.753849 1.104415
v 0.044497 1.753849 1.104415
v -0.044497 0.449221 1.104415
v 0.044497 0.449221 1.104415
v 0.044497 0.522890 1.160883
v 0.044497 0.522890 2.047948
v 0.044497 1.680180 1.160883
v 0.044497 1.680180 2.047948
v -0.053953 0.522890 1.160883
v -0.053953 0.522890 2.047948
v -0.053953 1.680180 1.160883
v -0.053953 1.680180 2.047948
vt 0.528719 0.001992
vt 0.908946 0.001992
vt 0.908946 0.498046
vt 0.528719 0.498046
vt 0.093720 0.001992
vt 0.522354 0.001992
vt 0.498150 0.033569
vt 0.117924 0.033569
vt 0.522354 0.561200
vt 0.498150 0.529623
vt 0.093720 0.561200
vt 0.117924 0.529623
vt 0.890631 0.501954
vt 0.928777 0.501954
vt 0.928777 0.930588
vt 0.890631 0.930588
vt 0.846479 0.501954
vt 0.884625 0.501954
vt 0.884625 0.930588
vt 0.846479 0.930588
vt 0.840473 0.501954
vt 0.840473 0.882180
vt 0.798274 0.882180
vt 0.798274 0.501954
vt 0.792268 0.501954
vt 0.792268 0.882180
vt 0.750069 0.882180
vt 0.750069 0.501954
vt 0.001950 0.001992
vt 0.040096 0.001992
vt 0.040096 0.561200
vt 0.001950 0.561200
vt 0.047930 0.001992
vt 0.086076 0.001992
vt 0.086076 0.561200
vt 0.047930 0.561200
vt 0.958221 0.001992
vt 0.958221 0.498046
vt 0.916022 0.498046
vt 0.916022 0.001992
vt 0.976983 0.501954
vt 0.976983 0.998008
vt 0.934783 0.998008
vt 0.934783 0.501954
vn 0.000000 0.000000 1.000000
vn 0.000000 0.000000 1.000000
vn 0.000000 0.000000 1.000000
vn 0.000000 0.000000 1.000000
vn 0.000000 1.000000 0.000000
vn 0.000000 1.000000 0.000000
vn 0.000000 1.000000 0.000000
vn 0.000000 1.000000 0.000000
vn 0.000000 0.000000 -1.000000
vn 0.000000 0.000000 -1.000000
vn 0.000000 0.000000 -1.000000
vn 0.000000 0.000000 -1.000000
vn 0.000000 -1.000000 0.000000
vn 0.000000 -1.000000 0.000000
vn 0.000000 -1.000000 0.000000
vn 0.000000 -1.000000 0.000000
vn 1.000000 0.000000 0.000000
vn 1.000000 0.000000 0.000000
vn 1.000000 0.000000 0.000000
vn 1.000000 0.000000 0.000000
vn 1.000000 -0.000000 0.000000
vn 1.000000 -0.000000 0.000000
vn 1.000000 -0.000000 0.000000
vn 1.000000 -0.000000 0.000000
vn 1.000000 0.000000 0.000000
vn 1.000000 0.000000 0.000000
vn 1.000000 0.000000 0.000000
vn 1.000000 0.000000 0.000000
vn 1.000000 0.000000 0.000000
vn 1.000000 0.000000 0.000000
vn 1.000000 0.000000 0.000000
vn 1.000000 0.000000 0.000000
vn 1.000000 0.000000 0.000000
vn 1.000000 0.000000 0.000000
vn 1.000000 0.000000 0.000000
vn 1.000000 0.000000 0.000000
vn 0.000000 1.000000 0.000000
vn 0.000000 1.000000 0.000000
vn 0.000000 1.000000 0.000000
vn 0.000000 1.000000 0.000000
vn 0.000000 0.000000 1.000000
vn 0.000000 0.000000 1.000000
vn 0.000000 0.000000 1.000000
vn 0.000000 0.000000 1.000000
vn 0.000000 -1.000000 0.000000
vn 0.000000 -1.000000 0.000000
vn 0.000000 -1.000000 0.000000
vn 0.000000 -1.000000 0.000000
vn 0.000000 0.000000 -1.000000
vn 0.000000 0.000000 -1.000000
vn 0.000000 0.000000 -1.000000
vn 0.000000 0.000000 -1.000000
s off
g pCube1
usemtl lambert2SG
f 9/41/21 10/42/22 12/43/23 11/44/24
f 11/25/25 12/26/26 14/27/27 13/28/28
f 13/45/29 14/46/30 16/47/31 15/48/32
f 15/29/33 16/30/34 10/31/35 9/32/36
f 22/13/37 21/14/38 23/15/39 24/16/40
f 10/17/41 16/18/42 17/19/43 18/20/44
f 16/18/45 14/21/46 19/22/47 17/19/48
f 14/21/49 12/23/50 20/24/51 19/22/52
f 12/23/53 10/17/54 18/20/55 20/24/56
f 18/33/57 17/34/58 21/35/59 22/36/60
f 17/49/61 19/50/62 23/51/63 21/52/64
f 19/37/65 20/38/66 24/39/67 23/40/68
f 20/53/69 18/54/70 22/55/71 24/56/72
g default
v 1.486248 -0.301924 -0.791103
v 1.962622 -0.301782 -0.790488
v 1.485376 1.075907 -0.771025
v 1.961749 1.076050 -0.770401
v 1.485350 0.302285 -1.133563
v 1.961722 0.302429 -1.132934
v 1.485911 -0.301220 -1.145166
v 1.962284 -0.301077 -1.144543
v 1.961175 1.547229 -1.115810
v 1.484802 1.547083 -1.116444
v 1.961282 0.304542 -3.616912
v 1.484357 1.549221 -3.606200
v 1.960729 1.549372 -3.605546
v 1.961590 0.430085 -1.239141
v 1.961221 1.163946 -1.231485
v 1.961187 0.432021 -3.506194
v 1.960814 1.165785 -3.498456
v 1.827021 0.416140 -1.238912
v 1.826845 0.956555 -1.233374
v 1.826619 0.418076 -3.505964
v 1.826441 0.958500 -3.500385
v 1.965049 0.303925 -4.945102
v 1.488151 1.548613 -4.934506
v 1.964521 1.548771 -4.933816
v 1.493797 1.092638 -5.517281
v 1.970171 1.092830 -5.516667
v 1.965520 -0.232484 -4.955218
v 1.494457 -0.233324 -5.535677
v 1.970831 -0.233185 -5.535071
v 1.961282 0.304542 -3.616912
v 1.960729 1.549372 -3.605546
v 1.965049 0.303925 -4.945102
v 1.964521 1.548771 -4.933816
v 1.964877 1.007611 -4.937189
v 1.961090 1.008225 -3.608899
v 1.960729 1.452683 -3.705546
v 1.963989 1.452927 -4.830773
v 1.960823 1.128402 -3.707496
v 1.964159 1.127914 -4.832997
v 1.961187 0.428122 -3.715044
v 1.960835 0.884729 -3.709070
v 1.964394 0.427598 -4.839985
v 1.964131 0.884200 -4.834501
v 1.747733 1.450203 -3.705546
v 1.751183 1.450108 -4.831867
v 1.748095 1.131929 -3.708899
v 1.751281 1.131442 -4.833614
v 1.748292 0.428143 -3.715976
v 1.748119 0.884689 -3.710671
v 1.751545 0.427622 -4.841157
v 1.751418 0.884152 -4.836139
v 1.489980 1.538047 -5.238173
v 1.966348 1.465578 -5.237452
v 1.451217 0.303925 -4.945102
v 1.469050 -0.232484 -4.955218
v 1.430087 0.304542 -3.616912
vt 0.413675 0.654133
vt 0.413675 0.654134
vt 0.413675 0.654133
vt 0.413675 0.654133
vt 0.413675 0.654133
vt 0.179747 0.460185
vt 0.179862 0.402789
vt 0.277696 0.404671
vt 0.403109 0.463441
vt 0.479491 0.407447
vt 0.298391 0.387454
vt 0.417357 0.388695
vt 0.278039 0.001992
vt 0.298705 0.019941
vt 0.479839 0.003835
vt 0.417656 0.021195
vt 0.573818 0.370403
vt 0.486211 0.369505
vt 0.486525 0.001992
vt 0.574133 0.002897
vt 0.607736 0.003209
vt 0.607438 0.370709
vt 0.350615 0.467439
vt 0.350630 0.650027
vt 0.299035 0.649484
vt 0.298956 0.467155
vt 0.738463 0.216953
vt 0.645806 0.089063
vt 0.647446 0.002106
vt 0.741446 0.001992
vt 0.643976 0.290866
vt 0.693199 0.277379
vt 0.643976 0.290866
vt 0.644523 0.203138
vt 0.645806 0.089063
vt 0.720983 0.374423
vt 0.519183 0.376266
vt 0.519183 0.376266
vt 0.633258 0.374967
vt 0.720983 0.374423
vt 0.720886 0.589750
vt 0.430434 0.650419
vt 0.356423 0.649559
vt 0.356339 0.467155
vt 0.430347 0.467969
vt 0.928495 0.296409
vt 0.928592 0.511736
vt 0.912918 0.495525
vt 0.912957 0.313114
vt 0.840867 0.511192
vt 0.860349 0.495209
vt 0.840767 0.295862
vt 0.860270 0.312753
vt 0.820847 0.494954
vt 0.820761 0.312509
vt 0.726792 0.509893
vt 0.746826 0.493985
vt 0.726692 0.294580
vt 0.746741 0.311620
vt 0.183374 0.887248
vt 0.183475 0.810023
vt 0.240871 0.809968
vt 0.240772 0.887193
vt 0.001926 0.058089
vt 0.079151 0.057986
vt 0.079078 0.461599
vt 0.001853 0.461705
vt 0.002019 0.002093
vt 0.079244 0.001992
vt 0.079693 0.676925
vt 0.002468 0.677037
vt 0.079989 0.726148
vt 0.002765 0.726265
vt 0.003384 0.771511
vt 0.080609 0.771411
vt 0.636842 0.002029
vt 0.636777 0.369542
vt 0.614962 0.369505
vt 0.615027 0.001992
vt 0.252521 0.467333
vt 0.251992 0.649744
vt 0.217464 0.649744
vt 0.218023 0.467155
vt 0.211214 0.623698
vt 0.211755 0.806154
vt 0.177245 0.806254
vt 0.176729 0.623926
vt 0.170500 0.623698
vt 0.171020 0.806063
vt 0.136515 0.806253
vt 0.135988 0.623850
vt 0.293247 0.467421
vt 0.292713 0.649865
vt 0.258229 0.649606
vt 0.258764 0.467155
vt 0.173987 0.001992
vt 0.173377 0.217306
vt 0.087264 0.217306
vt 0.090690 0.001992
vt 0.173448 0.619985
vt 0.096223 0.619883
vt 0.747481 0.001992
vt 0.824706 0.002015
vt 0.824565 0.225376
vt 0.747340 0.225353
vt 0.001853 0.900174
vt 0.079078 0.900150
vt 0.079170 0.997985
vt 0.001945 0.998008
vt 0.130219 0.623698
vt 0.130279 0.742665
vt 0.108464 0.744926
vt 0.108436 0.657319
vt 0.102727 0.777486
vt 0.102666 0.896437
vt 0.080883 0.862833
vt 0.080912 0.775225
vt 0.436143 0.467186
vt 0.513368 0.467155
vt 0.513475 0.682116
vt 0.436250 0.682139
vt 0.085509 0.900150
vt 0.085451 0.987878
vt 0.085451 0.987878
vt 0.406496 0.654133
vt 0.406511 0.706702
vt 0.372026 0.706131
vt 0.371967 0.654535
vt 0.364785 0.654133
vt 0.364757 0.706821
vt 0.330259 0.706364
vt 0.330275 0.654705
vt 0.281326 0.653579
vt 0.281384 0.727600
vt 0.246871 0.727596
vt 0.246843 0.653585
vt 0.323077 0.653741
vt 0.323034 0.727761
vt 0.288551 0.727753
vt 0.288572 0.653745
vt 0.176078 0.900150
vt 0.176002 0.987108
vt 0.092705 0.987108
vt 0.095596 0.900150
vn -0.001296 -0.014575 0.999893
vn -0.001296 -0.014575 0.999893
vn -0.001296 -0.014575 0.999893
vn -0.001296 -0.014575 0.999893
vn 0.001309 0.019229 -0.999814
vn 0.001309 0.019229 -0.999814
vn 0.001309 0.019229 -0.999814
vn 0.001309 0.019229 -0.999814
vn 0.000301 -0.999998 -0.001991
vn 0.000301 -0.999998 -0.001991
vn 0.000301 -0.999998 -0.001991
vn 0.000301 -0.999998 -0.001991
vn 0.999999 0.000745 -0.001311
vn 0.999999 0.000745 -0.001311
vn 0.999999 0.000745 -0.001311
vn 0.999999 0.000745 -0.001311
vn 0.999999 0.000454 -0.001042
vn 0.999999 0.000454 -0.001042
vn 0.999999 0.000454 -0.001042
vn -0.000312 1.000000 0.000860
vn -0.000312 1.000000 0.000860
vn -0.000312 1.000000 0.000860
vn -0.000312 1.000000 0.000860
vn 1.000000 0.000330 -0.000178
vn 1.000000 0.000330 -0.000178
vn 1.000000 0.000330 -0.000178
vn 1.000000 0.000330 -0.000178
vn 1.000000 0.000475 -0.000935
vn 1.000000 0.000475 -0.000935
vn 1.000000 0.000475 -0.000935
vn 1.000000 0.000475 -0.000935
vn 1.000000 0.000893 -0.000177
vn 1.000000 0.000893 -0.000177
vn 1.000000 0.000893 -0.000177
vn 1.000000 0.000893 -0.000177
vn 1.000000 0.000463 0.000590
vn 1.000000 0.000463 0.000590
vn 1.000000 0.000463 0.000590
vn 1.000000 0.000463 0.000590
vn 1.000000 0.000173 -0.000179
vn 1.000000 0.000173 -0.000179
vn 1.000000 0.000173 -0.000179
vn 1.000000 0.000173 -0.000179
vn -0.002350 0.010353 -0.999944
vn -0.002350 0.010353 -0.999944
vn -0.002350 0.010353 -0.999944
vn -0.002350 0.010353 -0.999944
vn -0.103074 0.994673 0.000867
vn -0.103074 0.994673 0.000867
vn -0.103074 0.994673 0.000867
vn -0.103074 0.994673 0.000867
vn 0.002278 -0.010449 0.999943
vn 0.002278 -0.010449 0.999943
vn 0.002278 -0.010449 0.999943
vn 0.002278 -0.010449 0.999943
vn 0.839177 -0.543859 -0.000604
vn 0.839177 -0.543859 -0.000604
vn 0.839177 -0.543859 -0.000604
vn 0.839177 -0.543859 -0.000604
vn -0.000323 1.000000 -0.000456
vn -0.000323 1.000000 -0.000456
vn -0.000323 1.000000 -0.000456
vn -0.000323 1.000000 -0.000456
vn 0.999995 0.000696 0.002948
vn 0.999995 0.000696 0.002948
vn 0.999995 0.000696 0.002948
vn 0.999995 0.000696 0.002948
vn 0.075027 0.985574 -0.151706
vn 0.075027 0.985574 -0.151706
vn 0.075027 0.985574 -0.151706
vn 0.075027 0.985574 -0.151706
vn 0.001273 0.013876 -0.999903
vn 0.001273 0.013876 -0.999903
vn 0.001273 0.013876 -0.999903
vn 0.001273 0.013876 -0.999903
vn 0.999956 0.000463 0.009378
vn 0.999956 0.000463 0.009378
vn 0.999956 0.000463 0.009378
vn 0.999956 0.000463 0.009378
vn -0.997134 -0.001134 0.075647
vn -0.000000 -0.000000 0.000000
vn -0.000000 -0.000000 0.000000
vn -0.997134 -0.001134 0.075647
vn -0.997134 -0.001134 0.075647
vn 0.000000 0.000000 0.000000
vn 0.000000 0.000000 0.000000
vn 0.000000 0.000000 0.000000
vn 0.000000 0.000000 -0.000000
vn 0.996581 0.001172 -0.082615
vn 0.996581 0.001172 -0.082615
vn 0.996581 0.001172 -0.082615
vn 0.000000 0.000000 -0.000000
vn -0.000000 0.000000 -0.000000
vn -0.999992 0.000000 -0.003922
vn -0.999992 0.000000 -0.003922
vn 0.999996 0.000296 0.002911
vn 0.999996 0.000296 0.002911
vn 0.999996 0.000296 0.002911
vn 0.999996 0.000296 0.002911
vn 0.000000 0.000000 0.000000
vn 0.000000 0.000000 0.000000
vn 0.000000 0.000000 0.000000
vn 0.000000 0.000000 0.000000
vn 0.000000 0.000000 0.000000
vn 0.000000 0.000000 1.000000
vn 0.999991 -0.001746 0.003788
vn 0.999997 -0.001826 0.001736
vn 0.999997 -0.001856 0.001775
vn 0.999991 -0.001834 0.003705
vn 0.999998 0.000056 0.001983
vn 0.999993 0.003191 0.001897
vn 0.999993 0.000015 0.003678
vn 0.999988 0.003184 0.003651
vn 0.999995 0.002403 0.001812
vn 0.999996 0.002230 0.001488
vn 0.999995 -0.002697 0.001519
vn 0.999990 0.002312 0.003783
vn 0.999990 0.002157 0.004010
vn 0.999988 -0.002730 0.004044
vn 0.012442 -0.999923 -0.000029
vn 0.012442 -0.999923 -0.000029
vn 0.012442 -0.999923 -0.000029
vn 0.012442 -0.999923 -0.000029
vn 0.003316 0.008255 -0.999960
vn 0.003316 0.008255 -0.999960
vn 0.003316 0.008255 -0.999960
vn 0.003316 0.008255 -0.999960
vn 0.016575 0.999863 -0.000385
vn 0.016575 0.999863 -0.000385
vn 0.016575 0.999863 -0.000385
vn 0.016575 0.999863 -0.000385
vn -0.004030 -0.006172 0.999973
vn -0.004030 -0.006172 0.999973
vn -0.004030 -0.006172 0.999973
vn -0.004030 -0.006172 0.999973
vn 0.005952 0.012354 -0.999906
vn 0.005952 0.012354 -0.999906
vn 0.005952 0.012354 -0.999906
vn 0.005952 0.012354 -0.999906
vn 0.000107 1.000000 -0.000464
vn 0.000107 1.000000 -0.000464
vn 0.000107 1.000000 -0.000464
vn 0.000107 1.000000 -0.000464
vn -0.006602 -0.011504 0.999912
vn -0.006602 -0.011504 0.999912
vn -0.006602 -0.011504 0.999912
vn -0.006602 -0.011504 0.999912
vn 0.000203 -1.000000 0.000474
vn 0.000203 -1.000000 0.000474
vn 0.000203 -1.000000 0.000474
vn 0.000203 -1.000000 0.000474
vn 0.043898 0.563410 -0.825011
vn 0.043898 0.563410 -0.825011
vn 0.043898 0.563410 -0.825010
vn 0.043898 0.563410 -0.825010
vn -0.001244 0.591232 0.806501
vn -0.001244 0.591232 0.806501
vn -0.001244 0.591232 0.806501
vn -0.001244 0.591232 0.806501
vn 0.999960 0.001104 0.008830
vn 0.999960 0.001104 0.008830
vn 0.999960 0.001104 0.008830
vn 0.999960 0.001104 0.008830
vn 0.000000 -0.018856 0.999822
vn 0.000000 -0.018856 0.999822
vn 0.000000 -0.018856 0.999822
vn 0.000000 -0.018856 0.999822
vn 0.000000 -1.000000 0.000464
vn 0.000000 -1.000000 0.000464
vn 0.000000 -1.000000 0.000464
vn 0.000000 -1.000000 0.000464
vn 0.000144 -1.000000 -0.000881
vn 0.000144 -1.000000 -0.000881
vn 0.000144 -1.000000 -0.000881
vn 0.000144 -1.000000 -0.000881
s off
g pCube3
usemtl initialShadingGroup
f 25/158/73 26/159/74 28/160/75 27/161/76
f 29/162/77 30/163/78 32/164/79 31/165/80
f 31/116/81 32/117/82 26/118/83 25/119/84
f 26/62/85 32/63/86 30/64/87 28/65/88
f 28/65/89 30/64/90 33/66/91
f 34/120/92 33/121/93 37/122/94 36/123/95
f 43/73/96 42/74/97 44/75/98 45/76/99
f 33/66/100 30/64/101 38/67/102 39/68/103
f 30/64/104 35/69/105 40/70/106 38/67/107
f 35/69/108 37/71/109 41/72/110 40/70/111
f 37/71/112 33/66/113 39/68/114 41/72/115
f 39/166/116 38/167/117 42/168/118 43/169/119
f 38/132/120 40/133/121 44/134/122 42/135/123
f 40/170/124 41/171/125 45/172/126 44/173/127
f 41/77/128 39/78/129 43/73/130 45/76/131
f 36/123/132 37/122/133 48/126/134 47/127/135
f 69/79/136 68/80/137 70/81/138 71/82/139
f 47/127/140 48/126/141 77/128/142 76/129/143
f 49/174/144 50/175/145 53/176/146 52/177/147
f 50/83/148 46/84/149 51/85/150 53/86/151
f 37/92/152 35/93/153 54/94/154 59/95/155 55/96/156
f 35/57/157 46/58/158 54/59/159
f 46/84/160 48/87/161 57/89/162 58/90/163 56/91/164
f 48/97/165 37/92/166 55/96/167
f 73/98/168 72/99/169 74/100/170 75/101/171
f 46/58/172 56/60/173 58/61/174
f 58/178/175 57/179/176 48/180/177
s 1
f 48/102/178 55/103/179 60/104/180 61/105/181
f 55/103/179 59/106/182 62/107/183 60/104/180
f 59/106/182 58/108/184 63/109/185 62/107/183
f 58/108/184 48/102/178 61/105/181 63/109/185
f 59/106/182 54/112/186 64/113/187 65/110/188
f 54/112/186 46/114/189 66/115/190 64/113/187
f 46/114/189 58/108/184 67/111/191 66/115/190
f 58/108/184 59/106/182 65/110/188 67/111/191
s off
f 61/136/192 60/137/193 68/138/194 69/139/195
f 60/181/196 62/182/197 70/183/198 68/184/199
f 62/140/200 63/141/201 71/142/202 70/143/203
f 63/185/204 61/186/205 69/187/206 71/188/207
f 65/189/208 64/190/209 72/191/210 73/192/211
f 64/144/212 66/145/213 74/146/214 72/147/215
f 66/193/216 67/194/217 75/195/218 74/196/219
f 67/148/220 65/149/221 73/150/222 75/151/223
f 49/130/224 76/129/225 77/128/226 50/131/227
f 34/120/228 27/124/229 28/125/230 33/121/231
f 48/87/232 46/84/233 50/83/234 77/88/235
f 51/197/236 46/198/237 78/199/238 79/200/239
f 46/152/240 35/153/241 80/154/242 78/155/243
f 35/153/244 30/156/245 29/157/246 80/154/247
